<?xml version="1.0" standalone="no"?><!DOCTYPE svg PUBLIC "-//W3C//DTD SVG 1.1//EN" "http://www.w3.org/Graphics/SVG/1.1/DTD/svg11.dtd"><svg t="1621665382258" class="icon" viewBox="0 0 1024 1024" version="1.1" xmlns="http://www.w3.org/2000/svg" p-id="2032" xmlns:xlink="http://www.w3.org/1999/xlink" width="200" height="200"><defs><style type="text/css"></style></defs><path d="M121.39 959.56c-17.37 0-31.46-14.08-31.46-31.46v-4.19c0-173.26 108.67-331.4 270.4-393.51 16.2-6.24 34.41 1.86 40.66 18.1 6.23 16.22-1.86 34.42-18.09 40.65-137.61 52.84-230.05 187.36-230.05 334.76v4.19c0 17.38-14.09 31.46-31.46 31.46zM901.67 959.56c-17.37 0-31.46-14.08-31.46-31.46v-4.19c0-147.71-92.61-282.31-230.42-334.95-16.24-6.21-24.38-24.39-18.17-40.62 6.23-16.24 24.5-24.33 40.62-18.17 162.03 61.89 270.9 220.12 270.9 393.74v4.19c-0.01 17.38-14.1 31.46-31.47 31.46z" fill="#000000" p-id="2033"></path><path d="M121.16 896.63h780.28v62.93H121.16zM511.31 633.27c-156.99 0-284.7-127.72-284.7-284.7s127.72-284.7 284.7-284.7 284.7 127.72 284.7 284.7-127.71 284.7-284.7 284.7z m0-506.48c-122.29 0-221.78 99.49-221.78 221.78s99.49 221.78 221.78 221.78 221.78-99.49 221.78-221.78-99.49-221.78-221.78-221.78z" fill="#000000" p-id="2034"></path><path d="M637.02 380.03c-17.37 0-31.46-14.08-31.46-31.46 0-56.93-46.31-103.26-103.26-103.26-17.37 0-31.46-14.08-31.46-31.46s14.09-31.46 31.46-31.46c91.64 0 166.18 74.55 166.18 166.18 0.01 17.38-14.09 31.46-31.46 31.46z" fill="#000000" p-id="2035"></path></svg>