<?xml version="1.0" standalone="no"?><!DOCTYPE svg PUBLIC "-//W3C//DTD SVG 1.1//EN" "http://www.w3.org/Graphics/SVG/1.1/DTD/svg11.dtd"><svg t="1621665488178" class="icon" viewBox="0 0 1024 1024" version="1.1" xmlns="http://www.w3.org/2000/svg" p-id="2187" xmlns:xlink="http://www.w3.org/1999/xlink" width="200" height="200"><defs><style type="text/css"></style></defs><path d="M511.64 63.95c-156.83 0-284.7 127.87-284.7 284.7s127.87 284.71 284.7 284.71 284.71-127.88 284.71-284.71-127.88-284.7-284.71-284.7z m125.47 316.07c-17.38 0-31.36-14-31.36-31.37 0-56.94-46.33-103.27-103.27-103.27-17.37 0-31.36-13.99-31.36-31.36s14-31.85 31.36-31.85c91.68 0 165.99 74.8 165.99 166.48 0 17.37-14 31.37-31.36 31.37z" fill="#000000" p-id="2188"></path><path d="M662.4 530.07c-16.12-6.16-34.39 1.93-40.61 18.16-2.25 5.89-2.05 11.89-0.82 17.62-0.09-0.01-0.18-0.05-0.27-0.06-12.06-1.45-24.61-2.41-37.64-2.41H432.99c-10.52 0-20.58 0.49-30.63 1.44 0.93-5.39 0.98-10.96-1.13-16.43-6.24-16.23-24.45-24.33-40.64-18.09C198.9 592.39 90.27 750.47 90.27 923.68v4.19c0 17.21 13.85 31.1 31 31.36v0.33H901.55v-0.28c0.07 0 0.14 0.04 0.21 0.04 17.37 0 31.46-14.08 31.46-31.45v-4.19c-0.01-173.56-108.84-331.74-270.82-393.61z" fill="#000000" p-id="2189"></path></svg>